<mxfile host="app.diagrams.net" modified="2021-06-12T03:40:01.933Z" agent="5.0 (Windows NT 10.0; Win64; x64) AppleWebKit/537.36 (KHTML, like Gecko) Chrome/90.0.4430.93 Safari/537.36" etag="BtezZhysGAWLtH-3t2jk" version="14.7.6" type="github">
  <diagram id="Tjy8NqhLi6zw3iT90ep1" name="Page-1">
    <mxGraphModel dx="1328" dy="746" grid="1" gridSize="10" guides="1" tooltips="1" connect="1" arrows="1" fold="1" page="1" pageScale="1" pageWidth="827" pageHeight="1169" math="0" shadow="0">
      <root>
        <mxCell id="0" />
        <mxCell id="1" parent="0" />
        <mxCell id="p6CLhBDrvKvk6HDH5SoG-71" value="" style="rounded=1;whiteSpace=wrap;html=1;fillColor=#97D077;strokeColor=none;" parent="1" vertex="1">
          <mxGeometry x="224" y="660" width="386" height="480" as="geometry" />
        </mxCell>
        <mxCell id="p6CLhBDrvKvk6HDH5SoG-109" value="" style="rounded=1;whiteSpace=wrap;html=1;strokeColor=none;" parent="1" vertex="1">
          <mxGeometry x="269" y="720" width="290" height="70" as="geometry" />
        </mxCell>
        <mxCell id="p6CLhBDrvKvk6HDH5SoG-92" value="" style="rounded=1;whiteSpace=wrap;html=1;strokeColor=none;" parent="1" vertex="1">
          <mxGeometry x="434.25" y="820" width="140" height="260" as="geometry" />
        </mxCell>
        <mxCell id="p6CLhBDrvKvk6HDH5SoG-7" value="" style="rounded=1;whiteSpace=wrap;html=1;fillColor=#B3B3B3;strokeColor=none;" parent="1" vertex="1">
          <mxGeometry x="72.5" y="85" width="210" height="330" as="geometry" />
        </mxCell>
        <mxCell id="p6CLhBDrvKvk6HDH5SoG-1" value="V4" style="rounded=1;whiteSpace=wrap;html=1;strokeColor=none;" parent="1" vertex="1">
          <mxGeometry x="117.5" y="150" width="120" height="40" as="geometry" />
        </mxCell>
        <mxCell id="p6CLhBDrvKvk6HDH5SoG-2" value="" style="rounded=1;whiteSpace=wrap;html=1;fillColor=#97D077;strokeColor=none;" parent="1" vertex="1">
          <mxGeometry x="387.5" y="50" width="340" height="400" as="geometry" />
        </mxCell>
        <mxCell id="p6CLhBDrvKvk6HDH5SoG-3" value="V7" style="rounded=1;whiteSpace=wrap;html=1;strokeColor=none;" parent="1" vertex="1">
          <mxGeometry x="117.5" y="200" width="120" height="40" as="geometry" />
        </mxCell>
        <mxCell id="p6CLhBDrvKvk6HDH5SoG-4" value="V8" style="rounded=1;whiteSpace=wrap;html=1;strokeColor=none;" parent="1" vertex="1">
          <mxGeometry x="117.5" y="250" width="120" height="40" as="geometry" />
        </mxCell>
        <mxCell id="p6CLhBDrvKvk6HDH5SoG-5" value="V13" style="rounded=1;whiteSpace=wrap;html=1;strokeColor=none;" parent="1" vertex="1">
          <mxGeometry x="117.5" y="300" width="120" height="40" as="geometry" />
        </mxCell>
        <mxCell id="p6CLhBDrvKvk6HDH5SoG-6" value="..." style="rounded=1;whiteSpace=wrap;html=1;strokeColor=none;" parent="1" vertex="1">
          <mxGeometry x="117.5" y="350" width="120" height="40" as="geometry" />
        </mxCell>
        <mxCell id="p6CLhBDrvKvk6HDH5SoG-8" value="&lt;b&gt;Support&lt;/b&gt;" style="rounded=1;whiteSpace=wrap;html=1;fillColor=none;strokeColor=none;" parent="1" vertex="1">
          <mxGeometry x="117.5" y="90" width="120" height="40" as="geometry" />
        </mxCell>
        <mxCell id="p6CLhBDrvKvk6HDH5SoG-9" value="&lt;b&gt;AndroidX&lt;/b&gt;" style="rounded=1;whiteSpace=wrap;html=1;fillColor=none;strokeColor=none;" parent="1" vertex="1">
          <mxGeometry x="485" y="60" width="120" height="40" as="geometry" />
        </mxCell>
        <mxCell id="p6CLhBDrvKvk6HDH5SoG-10" value="" style="rounded=1;whiteSpace=wrap;html=1;strokeColor=none;" parent="1" vertex="1">
          <mxGeometry x="475" y="130" width="140" height="240" as="geometry" />
        </mxCell>
        <mxCell id="p6CLhBDrvKvk6HDH5SoG-11" value="Hilt" style="rounded=1;whiteSpace=wrap;html=1;fillColor=#e1d5e7;strokeColor=none;" parent="1" vertex="1">
          <mxGeometry x="407.5" y="350" width="50" height="40" as="geometry" />
        </mxCell>
        <mxCell id="p6CLhBDrvKvk6HDH5SoG-12" value="Paging" style="rounded=1;whiteSpace=wrap;html=1;fillColor=#e1d5e7;strokeColor=none;" parent="1" vertex="1">
          <mxGeometry x="407.5" y="120" width="50" height="40" as="geometry" />
        </mxCell>
        <mxCell id="p6CLhBDrvKvk6HDH5SoG-13" value="ViewBinding" style="rounded=1;whiteSpace=wrap;html=1;fillColor=#e1d5e7;strokeColor=none;" parent="1" vertex="1">
          <mxGeometry x="597.5" y="380" width="82.5" height="40" as="geometry" />
        </mxCell>
        <mxCell id="p6CLhBDrvKvk6HDH5SoG-14" value="DataBinding" style="rounded=1;whiteSpace=wrap;html=1;fillColor=#e1d5e7;strokeColor=none;" parent="1" vertex="1">
          <mxGeometry x="616.25" y="90" width="82.5" height="40" as="geometry" />
        </mxCell>
        <mxCell id="p6CLhBDrvKvk6HDH5SoG-15" value="LiveData" style="rounded=1;whiteSpace=wrap;html=1;fillColor=#e1d5e7;strokeColor=none;" parent="1" vertex="1">
          <mxGeometry x="647.5" y="190" width="60" height="40" as="geometry" />
        </mxCell>
        <mxCell id="p6CLhBDrvKvk6HDH5SoG-16" value="ViewModel" style="rounded=1;whiteSpace=wrap;html=1;fillColor=#e1d5e7;strokeColor=none;" parent="1" vertex="1">
          <mxGeometry x="630" y="280" width="77.5" height="40" as="geometry" />
        </mxCell>
        <mxCell id="p6CLhBDrvKvk6HDH5SoG-17" value="..." style="rounded=1;whiteSpace=wrap;html=1;fillColor=#e1d5e7;strokeColor=none;" parent="1" vertex="1">
          <mxGeometry x="497.5" y="390" width="50" height="40" as="geometry" />
        </mxCell>
        <mxCell id="p6CLhBDrvKvk6HDH5SoG-20" value="" style="shape=flexArrow;endArrow=classic;html=1;fillColor=#ffe6cc;strokeColor=none;" parent="1" source="p6CLhBDrvKvk6HDH5SoG-7" target="p6CLhBDrvKvk6HDH5SoG-10" edge="1">
          <mxGeometry width="50" height="50" relative="1" as="geometry">
            <mxPoint x="357.5" y="250" as="sourcePoint" />
            <mxPoint x="367.5" y="230" as="targetPoint" />
          </mxGeometry>
        </mxCell>
        <mxCell id="p6CLhBDrvKvk6HDH5SoG-21" value="Preference" style="rounded=1;whiteSpace=wrap;html=1;fillColor=#dae8fc;strokeColor=none;" parent="1" vertex="1">
          <mxGeometry x="485" y="160" width="120" height="40" as="geometry" />
        </mxCell>
        <mxCell id="p6CLhBDrvKvk6HDH5SoG-22" value="Fragment" style="rounded=1;whiteSpace=wrap;html=1;fillColor=#dae8fc;strokeColor=none;" parent="1" vertex="1">
          <mxGeometry x="485" y="220" width="120" height="40" as="geometry" />
        </mxCell>
        <mxCell id="p6CLhBDrvKvk6HDH5SoG-23" value="AppCompat" style="rounded=1;whiteSpace=wrap;html=1;fillColor=#dae8fc;strokeColor=none;" parent="1" vertex="1">
          <mxGeometry x="485" y="280" width="120" height="40" as="geometry" />
        </mxCell>
        <mxCell id="p6CLhBDrvKvk6HDH5SoG-24" value="&lt;b&gt;&lt;font style=&quot;font-size: 20px&quot;&gt;Jetpack&lt;/font&gt;&lt;/b&gt;" style="rounded=1;whiteSpace=wrap;html=1;strokeColor=none;fillColor=none;" parent="1" vertex="1">
          <mxGeometry x="496.25" y="10" width="97.5" height="30" as="geometry" />
        </mxCell>
        <mxCell id="p6CLhBDrvKvk6HDH5SoG-69" value="" style="rounded=1;whiteSpace=wrap;html=1;fillColor=#B3B3B3;strokeColor=none;" parent="1" vertex="1">
          <mxGeometry x="23.5" y="790" width="165" height="300" as="geometry" />
        </mxCell>
        <mxCell id="p6CLhBDrvKvk6HDH5SoG-70" value="V4" style="rounded=1;whiteSpace=wrap;html=1;strokeColor=none;" parent="1" vertex="1">
          <mxGeometry x="63.5" y="860" width="80" height="40" as="geometry" />
        </mxCell>
        <mxCell id="p6CLhBDrvKvk6HDH5SoG-72" value="V7" style="rounded=1;whiteSpace=wrap;html=1;strokeColor=none;" parent="1" vertex="1">
          <mxGeometry x="63.5" y="920" width="80" height="40" as="geometry" />
        </mxCell>
        <mxCell id="p6CLhBDrvKvk6HDH5SoG-73" value="V8" style="rounded=1;whiteSpace=wrap;html=1;strokeColor=none;" parent="1" vertex="1">
          <mxGeometry x="63.5" y="975" width="80" height="40" as="geometry" />
        </mxCell>
        <mxCell id="p6CLhBDrvKvk6HDH5SoG-75" value="..." style="rounded=1;whiteSpace=wrap;html=1;strokeColor=none;" parent="1" vertex="1">
          <mxGeometry x="63.5" y="1030" width="80" height="40" as="geometry" />
        </mxCell>
        <mxCell id="p6CLhBDrvKvk6HDH5SoG-76" value="&lt;b&gt;Support&lt;/b&gt;" style="rounded=1;whiteSpace=wrap;html=1;fillColor=none;strokeColor=none;" parent="1" vertex="1">
          <mxGeometry x="46" y="810" width="120" height="40" as="geometry" />
        </mxCell>
        <mxCell id="p6CLhBDrvKvk6HDH5SoG-77" value="&lt;b&gt;AndroidX&lt;/b&gt;" style="rounded=1;whiteSpace=wrap;html=1;fillColor=none;strokeColor=none;" parent="1" vertex="1">
          <mxGeometry x="362" y="670" width="120" height="40" as="geometry" />
        </mxCell>
        <mxCell id="p6CLhBDrvKvk6HDH5SoG-78" value="" style="rounded=1;whiteSpace=wrap;html=1;strokeColor=none;" parent="1" vertex="1">
          <mxGeometry x="263.5" y="820" width="140" height="260" as="geometry" />
        </mxCell>
        <mxCell id="p6CLhBDrvKvk6HDH5SoG-79" value="ViewModel" style="rounded=1;whiteSpace=wrap;html=1;fillColor=#e1d5e7;strokeColor=none;" parent="1" vertex="1">
          <mxGeometry x="458.5" y="970" width="90" height="40" as="geometry" />
        </mxCell>
        <mxCell id="p6CLhBDrvKvk6HDH5SoG-80" value="Paging" style="rounded=1;whiteSpace=wrap;html=1;fillColor=#e1d5e7;strokeColor=none;" parent="1" vertex="1">
          <mxGeometry x="257.5" width="50" height="40" as="geometry" />
        </mxCell>
        <mxCell id="p6CLhBDrvKvk6HDH5SoG-81" value="ViewBinding" style="rounded=1;whiteSpace=wrap;html=1;fillColor=#e1d5e7;strokeColor=none;" parent="1" vertex="1">
          <mxGeometry x="20" y="30" width="82.5" height="40" as="geometry" />
        </mxCell>
        <mxCell id="p6CLhBDrvKvk6HDH5SoG-82" value="DataBinding" style="rounded=1;whiteSpace=wrap;html=1;fillColor=#e1d5e7;strokeColor=none;" parent="1" vertex="1">
          <mxGeometry x="140" y="5" width="82.5" height="40" as="geometry" />
        </mxCell>
        <mxCell id="p6CLhBDrvKvk6HDH5SoG-83" value="Lifecycle" style="rounded=1;whiteSpace=wrap;html=1;fillColor=#e1d5e7;strokeColor=none;" parent="1" vertex="1">
          <mxGeometry x="461" y="850" width="90" height="40" as="geometry" />
        </mxCell>
        <mxCell id="p6CLhBDrvKvk6HDH5SoG-84" value="LiveData" style="rounded=1;whiteSpace=wrap;html=1;fillColor=#e1d5e7;strokeColor=none;" parent="1" vertex="1">
          <mxGeometry x="459.5" y="910" width="89" height="40" as="geometry" />
        </mxCell>
        <mxCell id="p6CLhBDrvKvk6HDH5SoG-85" value="..." style="rounded=1;whiteSpace=wrap;html=1;fillColor=#e1d5e7;strokeColor=none;" parent="1" vertex="1">
          <mxGeometry x="459.25" y="1025" width="88.5" height="40" as="geometry" />
        </mxCell>
        <mxCell id="p6CLhBDrvKvk6HDH5SoG-87" value="Preference" style="rounded=1;whiteSpace=wrap;html=1;fillColor=#dae8fc;strokeColor=none;" parent="1" vertex="1">
          <mxGeometry x="283.5" y="850" width="100" height="40" as="geometry" />
        </mxCell>
        <mxCell id="p6CLhBDrvKvk6HDH5SoG-88" value="Fragment" style="rounded=1;whiteSpace=wrap;html=1;fillColor=#dae8fc;strokeColor=none;" parent="1" vertex="1">
          <mxGeometry x="283.5" y="910" width="100" height="40" as="geometry" />
        </mxCell>
        <mxCell id="p6CLhBDrvKvk6HDH5SoG-89" value="AppCompat" style="rounded=1;whiteSpace=wrap;html=1;fillColor=#dae8fc;strokeColor=none;" parent="1" vertex="1">
          <mxGeometry x="283.5" y="970" width="100" height="40" as="geometry" />
        </mxCell>
        <mxCell id="p6CLhBDrvKvk6HDH5SoG-90" value="&lt;b&gt;&lt;font style=&quot;font-size: 20px&quot;&gt;Jetpack&lt;/font&gt;&lt;/b&gt;" style="rounded=1;whiteSpace=wrap;html=1;strokeColor=none;fillColor=none;" parent="1" vertex="1">
          <mxGeometry x="374.75" y="620" width="97.5" height="30" as="geometry" />
        </mxCell>
        <mxCell id="p6CLhBDrvKvk6HDH5SoG-94" value="" style="rounded=1;whiteSpace=wrap;html=1;fillColor=#B3B3B3;strokeColor=none;" parent="1" vertex="1">
          <mxGeometry x="647.5" y="790" width="165" height="300" as="geometry" />
        </mxCell>
        <mxCell id="p6CLhBDrvKvk6HDH5SoG-95" value="Lifecycle" style="rounded=1;whiteSpace=wrap;html=1;strokeColor=none;" parent="1" vertex="1">
          <mxGeometry x="687.5" y="860" width="80" height="40" as="geometry" />
        </mxCell>
        <mxCell id="p6CLhBDrvKvk6HDH5SoG-96" value="LiveData" style="rounded=1;whiteSpace=wrap;html=1;strokeColor=none;" parent="1" vertex="1">
          <mxGeometry x="687.5" y="920" width="80" height="40" as="geometry" />
        </mxCell>
        <mxCell id="p6CLhBDrvKvk6HDH5SoG-97" value="ViewModel" style="rounded=1;whiteSpace=wrap;html=1;strokeColor=none;" parent="1" vertex="1">
          <mxGeometry x="687.5" y="980" width="80" height="40" as="geometry" />
        </mxCell>
        <mxCell id="p6CLhBDrvKvk6HDH5SoG-98" value="..." style="rounded=1;whiteSpace=wrap;html=1;strokeColor=none;" parent="1" vertex="1">
          <mxGeometry x="687.5" y="1030" width="80" height="40" as="geometry" />
        </mxCell>
        <mxCell id="p6CLhBDrvKvk6HDH5SoG-99" value="&lt;b&gt;Android Architecture&lt;br&gt;Components&lt;br&gt;&lt;/b&gt;" style="rounded=1;whiteSpace=wrap;html=1;fillColor=none;strokeColor=none;" parent="1" vertex="1">
          <mxGeometry x="667.5" y="797.5" width="120" height="40" as="geometry" />
        </mxCell>
        <mxCell id="p6CLhBDrvKvk6HDH5SoG-101" value="KTX" style="rounded=1;whiteSpace=wrap;html=1;fillColor=#e1d5e7;strokeColor=none;" parent="1" vertex="1">
          <mxGeometry x="292.25" y="735" width="82.5" height="40" as="geometry" />
        </mxCell>
        <mxCell id="p6CLhBDrvKvk6HDH5SoG-102" value="Tests" style="rounded=1;whiteSpace=wrap;html=1;fillColor=#e1d5e7;strokeColor=none;" parent="1" vertex="1">
          <mxGeometry x="450" y="735" width="82.5" height="40" as="geometry" />
        </mxCell>
        <mxCell id="p6CLhBDrvKvk6HDH5SoG-103" value="KTX" style="rounded=1;whiteSpace=wrap;html=1;strokeColor=none;fillColor=#B3B3B3;" parent="1" vertex="1">
          <mxGeometry x="120" y="630" width="82.5" height="40" as="geometry" />
        </mxCell>
        <mxCell id="p6CLhBDrvKvk6HDH5SoG-104" value="Tests" style="rounded=1;whiteSpace=wrap;html=1;strokeColor=none;fillColor=#B3B3B3;" parent="1" vertex="1">
          <mxGeometry x="625" y="630" width="82.5" height="40" as="geometry" />
        </mxCell>
        <mxCell id="p6CLhBDrvKvk6HDH5SoG-107" value="" style="shape=flexArrow;endArrow=classic;html=1;fillColor=#ffe6cc;strokeColor=none;entryX=1;entryY=0.5;entryDx=0;entryDy=0;exitX=0.5;exitY=1;exitDx=0;exitDy=0;" parent="1" source="p6CLhBDrvKvk6HDH5SoG-104" target="p6CLhBDrvKvk6HDH5SoG-102" edge="1">
          <mxGeometry width="50" height="50" relative="1" as="geometry">
            <mxPoint x="518.75" y="1130" as="sourcePoint" />
            <mxPoint x="627.5" y="1100" as="targetPoint" />
          </mxGeometry>
        </mxCell>
        <mxCell id="p6CLhBDrvKvk6HDH5SoG-108" value="..." style="rounded=1;whiteSpace=wrap;html=1;fillColor=#dae8fc;strokeColor=none;" parent="1" vertex="1">
          <mxGeometry x="283.5" y="1025" width="100" height="40" as="geometry" />
        </mxCell>
        <mxCell id="p6CLhBDrvKvk6HDH5SoG-112" value="" style="shape=flexArrow;endArrow=classic;html=1;fillColor=#ffe6cc;strokeColor=none;entryX=0;entryY=0.5;entryDx=0;entryDy=0;exitX=0.5;exitY=1;exitDx=0;exitDy=0;endSize=6;startSize=0;strokeWidth=1;dashed=1;" parent="1" source="p6CLhBDrvKvk6HDH5SoG-103" target="p6CLhBDrvKvk6HDH5SoG-101" edge="1">
          <mxGeometry width="50" height="50" relative="1" as="geometry">
            <mxPoint x="184" y="640" as="sourcePoint" />
            <mxPoint x="102.5" y="740" as="targetPoint" />
          </mxGeometry>
        </mxCell>
        <mxCell id="p6CLhBDrvKvk6HDH5SoG-116" value="" style="shape=flexArrow;endArrow=classic;html=1;fillColor=#ffe6cc;strokeColor=none;entryX=0;entryY=0.5;entryDx=0;entryDy=0;endSize=6;startSize=0;strokeWidth=1;dashed=1;" parent="1" source="p6CLhBDrvKvk6HDH5SoG-69" target="p6CLhBDrvKvk6HDH5SoG-78" edge="1">
          <mxGeometry width="50" height="50" relative="1" as="geometry">
            <mxPoint x="166" y="930" as="sourcePoint" />
            <mxPoint x="297" y="1015" as="targetPoint" />
            <Array as="points">
              <mxPoint x="230" y="960" />
            </Array>
          </mxGeometry>
        </mxCell>
        <mxCell id="p6CLhBDrvKvk6HDH5SoG-117" value="" style="shape=flexArrow;endArrow=classic;html=1;fillColor=#ffe6cc;strokeColor=none;entryX=1;entryY=0.5;entryDx=0;entryDy=0;endSize=6;startSize=0;strokeWidth=1;dashed=1;exitX=0.015;exitY=0.5;exitDx=0;exitDy=0;exitPerimeter=0;" parent="1" source="p6CLhBDrvKvk6HDH5SoG-94" target="p6CLhBDrvKvk6HDH5SoG-92" edge="1">
          <mxGeometry width="50" height="50" relative="1" as="geometry">
            <mxPoint x="605" y="1119.9980952380952" as="sourcePoint" />
            <mxPoint x="680" y="1124.76" as="targetPoint" />
            <Array as="points">
              <mxPoint x="620" y="960" />
            </Array>
          </mxGeometry>
        </mxCell>
        <mxCell id="0R_7rcoBDypdj2lKxS9C-1" value="" style="rounded=1;whiteSpace=wrap;html=1;" parent="1" vertex="1">
          <mxGeometry x="289" y="1290" width="250" height="420" as="geometry" />
        </mxCell>
      </root>
    </mxGraphModel>
  </diagram>
</mxfile>
